# xmcd
#
# Track frame offsets:
#	150
#	16277
#	32770
#	46695
#	60970
#	71960
#	83402
#	95193
#	106667
#	118070
#	133384
#	142350
#	155587
#
# Disc length: 2229 seconds
#
# Revision: 0
# Processed by: cddbd v1.5.2PL0 Copyright (c) Steve Scherf et al.
# Submitted via: audiograbber 1.83.01
#
DISCID=b408b30d
DTITLE=George Jones - Hallelujah Weekend
DYEAR=1990
DGENRE=Country
TTITLE0=Mama's Family Bible
TTITLE1=A Picture From Life's Other Side
TTITLE2=Me And Jesus
TTITLE3=We Oughta Be Ashamed
TTITLE4=The Devil Is Gathering Firewood
TTITLE5=Would They Love Him Down In Shreveport
TTITLE6=Swoop Down, Sweet Jesus
TTITLE7=(It's The Bible Against The Bottle) The Battle For Daddy's Soul
TTITLE8=Hallelujah Weekend
TTITLE9=Jesus Saves Today
TTITLE10=We Love To Sing About Jesus (With Tammy Wynette)
TTITLE11=Old Fashioned Singing (With Tammy Wynette)
TTITLE12=Let's All Go Down To The River (With Tammy Wynette)
EXTD=
EXTT0=
EXTT1=
EXTT2=
EXTT3=
EXTT4=
EXTT5=
EXTT6=
EXTT7=
EXTT8=
EXTT9=
EXTT10=
EXTT11=
EXTT12=
PLAYORDER=
